<svg width="83" height="37" viewBox="0 0 83 37" fill="none" xmlns="http://www.w3.org/2000/svg">
<path d="M12.72 23.1V15.65H15.49C15.9967 15.65 16.4433 15.7433 16.83 15.93C17.2233 16.11 17.53 16.3767 17.75 16.73C17.97 17.0767 18.08 17.5 18.08 18C18.08 18.5133 17.9567 18.95 17.71 19.31C17.47 19.67 17.1433 19.9367 16.73 20.11L18.44 23.1H16.9L15.07 19.83L15.95 20.35H14.08V23.1H12.72ZM14.08 19.15H15.51C15.7567 19.15 15.97 19.1033 16.15 19.01C16.33 18.91 16.47 18.7733 16.57 18.6C16.67 18.4267 16.72 18.2267 16.72 18C16.72 17.7667 16.67 17.5667 16.57 17.4C16.47 17.2267 16.33 17.0933 16.15 17C15.97 16.9 15.7567 16.85 15.51 16.85H14.08V19.15ZM21.4986 23.22C20.9386 23.22 20.4486 23.0933 20.0286 22.84C19.6086 22.5867 19.2819 22.2433 19.0486 21.81C18.8153 21.3767 18.6986 20.8967 18.6986 20.37C18.6986 19.8233 18.8153 19.34 19.0486 18.92C19.2886 18.4933 19.6119 18.1567 20.0186 17.91C20.4319 17.6633 20.8919 17.54 21.3986 17.54C21.8253 17.54 22.1986 17.61 22.5186 17.75C22.8453 17.89 23.1219 18.0833 23.3486 18.33C23.5753 18.5767 23.7486 18.86 23.8686 19.18C23.9886 19.4933 24.0486 19.8333 24.0486 20.2C24.0486 20.2933 24.0419 20.39 24.0286 20.49C24.0219 20.59 24.0053 20.6767 23.9786 20.75H19.7786V19.75H23.2386L22.6186 20.22C22.6786 19.9133 22.6619 19.64 22.5686 19.4C22.4819 19.16 22.3353 18.97 22.1286 18.83C21.9286 18.69 21.6853 18.62 21.3986 18.62C21.1253 18.62 20.8819 18.69 20.6686 18.83C20.4553 18.9633 20.2919 19.1633 20.1786 19.43C20.0719 19.69 20.0319 20.0067 20.0586 20.38C20.0319 20.7133 20.0753 21.01 20.1886 21.27C20.3086 21.5233 20.4819 21.72 20.7086 21.86C20.9419 22 21.2086 22.07 21.5086 22.07C21.8086 22.07 22.0619 22.0067 22.2686 21.88C22.4819 21.7533 22.6486 21.5833 22.7686 21.37L23.8286 21.89C23.7219 22.15 23.5553 22.38 23.3286 22.58C23.1019 22.78 22.8319 22.9367 22.5186 23.05C22.2119 23.1633 21.8719 23.22 21.4986 23.22ZM27.1116 23.22C26.5316 23.22 26.025 23.0833 25.5916 22.81C25.165 22.53 24.8716 22.1533 24.7116 21.68L25.6916 21.21C25.8316 21.5167 26.025 21.7567 26.2716 21.93C26.525 22.1033 26.805 22.19 27.1116 22.19C27.3516 22.19 27.5416 22.1367 27.6816 22.03C27.8216 21.9233 27.8916 21.7833 27.8916 21.61C27.8916 21.5033 27.8616 21.4167 27.8016 21.35C27.7483 21.2767 27.6716 21.2167 27.5716 21.17C27.4783 21.1167 27.375 21.0733 27.2616 21.04L26.3716 20.79C25.9116 20.6567 25.5616 20.4533 25.3216 20.18C25.0883 19.9067 24.9716 19.5833 24.9716 19.21C24.9716 18.8767 25.055 18.5867 25.2216 18.34C25.395 18.0867 25.6316 17.89 25.9316 17.75C26.2383 17.61 26.5883 17.54 26.9816 17.54C27.495 17.54 27.9483 17.6633 28.3416 17.91C28.735 18.1567 29.015 18.5033 29.1816 18.95L28.1816 19.42C28.0883 19.1733 27.9316 18.9767 27.7116 18.83C27.4916 18.6833 27.245 18.61 26.9716 18.61C26.7516 18.61 26.5783 18.66 26.4516 18.76C26.325 18.86 26.2616 18.99 26.2616 19.15C26.2616 19.25 26.2883 19.3367 26.3416 19.41C26.395 19.4833 26.4683 19.5433 26.5616 19.59C26.6616 19.6367 26.775 19.68 26.9016 19.72L27.7716 19.98C28.2183 20.1133 28.5616 20.3133 28.8016 20.58C29.0483 20.8467 29.1716 21.1733 29.1716 21.56C29.1716 21.8867 29.085 22.1767 28.9116 22.43C28.7383 22.6767 28.4983 22.87 28.1916 23.01C27.885 23.15 27.525 23.22 27.1116 23.22ZM32.8384 23.22C32.305 23.22 31.8184 23.0967 31.3784 22.85C30.945 22.6033 30.5984 22.2667 30.3384 21.84C30.085 21.4133 29.9584 20.9267 29.9584 20.38C29.9584 19.8333 30.085 19.3467 30.3384 18.92C30.5984 18.4933 30.945 18.1567 31.3784 17.91C31.8117 17.6633 32.2984 17.54 32.8384 17.54C33.3717 17.54 33.855 17.6633 34.2884 17.91C34.7217 18.1567 35.065 18.4933 35.3184 18.92C35.5784 19.34 35.7084 19.8267 35.7084 20.38C35.7084 20.9267 35.5784 21.4133 35.3184 21.84C35.0584 22.2667 34.7117 22.6033 34.2784 22.85C33.845 23.0967 33.365 23.22 32.8384 23.22ZM32.8384 22.02C33.1317 22.02 33.3884 21.95 33.6084 21.81C33.835 21.67 34.0117 21.4767 34.1384 21.23C34.2717 20.9767 34.3384 20.6933 34.3384 20.38C34.3384 20.06 34.2717 19.78 34.1384 19.54C34.0117 19.2933 33.835 19.1 33.6084 18.96C33.3884 18.8133 33.1317 18.74 32.8384 18.74C32.5384 18.74 32.275 18.8133 32.0484 18.96C31.8217 19.1 31.6417 19.2933 31.5084 19.54C31.3817 19.78 31.3184 20.06 31.3184 20.38C31.3184 20.6933 31.3817 20.9767 31.5084 21.23C31.6417 21.4767 31.8217 21.67 32.0484 21.81C32.275 21.95 32.5384 22.02 32.8384 22.02ZM36.7018 23.1V15.53H38.0118V23.1H36.7018ZM40.8613 23.1L38.7213 17.66H40.1513L41.7013 21.94H41.1713L42.7313 17.66H44.1613L42.0213 23.1H40.8613ZM47.3677 23.22C46.8077 23.22 46.3177 23.0933 45.8977 22.84C45.4777 22.5867 45.1511 22.2433 44.9177 21.81C44.6844 21.3767 44.5677 20.8967 44.5677 20.37C44.5677 19.8233 44.6844 19.34 44.9177 18.92C45.1577 18.4933 45.4811 18.1567 45.8877 17.91C46.3011 17.6633 46.7611 17.54 47.2677 17.54C47.6944 17.54 48.0677 17.61 48.3877 17.75C48.7144 17.89 48.9911 18.0833 49.2177 18.33C49.4444 18.5767 49.6177 18.86 49.7377 19.18C49.8577 19.4933 49.9177 19.8333 49.9177 20.2C49.9177 20.2933 49.9111 20.39 49.8977 20.49C49.8911 20.59 49.8744 20.6767 49.8477 20.75H45.6477V19.75H49.1077L48.4877 20.22C48.5477 19.9133 48.5311 19.64 48.4377 19.4C48.3511 19.16 48.2044 18.97 47.9977 18.83C47.7977 18.69 47.5544 18.62 47.2677 18.62C46.9944 18.62 46.7511 18.69 46.5377 18.83C46.3244 18.9633 46.1611 19.1633 46.0477 19.43C45.9411 19.69 45.9011 20.0067 45.9277 20.38C45.9011 20.7133 45.9444 21.01 46.0577 21.27C46.1777 21.5233 46.3511 21.72 46.5777 21.86C46.8111 22 47.0777 22.07 47.3777 22.07C47.6777 22.07 47.9311 22.0067 48.1377 21.88C48.3511 21.7533 48.5177 21.5833 48.6377 21.37L49.6977 21.89C49.5911 22.15 49.4244 22.38 49.1977 22.58C48.9711 22.78 48.7011 22.9367 48.3877 23.05C48.0811 23.1633 47.7411 23.22 47.3677 23.22Z" fill="#FFCC00"/>
<path d="M63.4 18.6L60.3334 15.5333L61.2667 14.6L65.2667 18.6L61.2667 22.6L60.3334 21.6667L63.4 18.6Z" fill="#FFCC00"/>
</svg>
